<svg width="24" height="24" viewBox="0 0 24 24" fill="none" xmlns="http://www.w3.org/2000/svg">
<path d="M19.3305 13.6848C19.3582 11.1348 21.3976 9.87352 21.4921 9.8252C20.3587 8.28352 18.6657 7.97157 17.9023 7.94062C16.4251 7.80157 14.9912 8.76106 14.2662 8.76106C13.5284 8.76106 12.3364 7.95726 11.4589 8.00331C9.6483 8.02636 7.98687 9.00632 7.05191 10.5542C5.12781 13.7431 6.55836 18.2526 8.43572 20.8409C9.35334 22.1062 10.4367 23.4988 11.8845 23.4504C13.2753 23.3939 13.7997 22.5996 15.4924 22.5996C17.1706 22.5996 17.6329 23.4504 19.0984 23.425C20.6125 23.3648 21.5658 22.1248 22.4764 20.8906C23.1932 19.9213 23.5501 18.9248 23.5855 18.8876C23.5599 18.8752 20.7381 17.8542 20.7676 14.7176M16.3274 5.92631C17.0981 5.03437 17.6186 3.79585 17.4779 2.57147C16.4063 2.61247 15.1098 3.24231 14.3411 4.08957C13.6491 4.84731 13.0456 6.09506 13.2104 7.29381C14.4069 7.38076 15.6547 6.70276 16.3274 5.92631Z" fill="black"/>
</svg>
