<svg width="24" height="32" viewBox="0 0 24 32" fill="none" xmlns="http://www.w3.org/2000/svg">
<path d="M3.98438 16.9844C4.54444 16.9844 5.021 16.791 5.41406 16.4043C5.80469 16.02 6 15.5571 6 15.0156C6 14.4531 5.80469 13.9766 5.41406 13.5859C5.02344 13.1953 4.54688 13 3.98438 13C3.44292 13 2.98003 13.1953 2.5957 13.5859C2.20898 13.979 2.01562 14.4556 2.01562 15.0156C2.01562 15.5547 2.20898 16.0176 2.5957 16.4043C2.98242 16.791 3.44531 16.9844 3.98438 16.9844ZM5.10938 18.1094C4.67188 18.0469 4.29688 18.0156 3.98438 18.0156C2.98438 18.0156 2.0625 18.2031 1.21875 18.5781C0.84176 18.7431 0.544885 18.9911 0.328125 19.3223C0.109375 19.6565 0 20.0334 0 20.4531V22H4.5V20.4062C4.5 19.5859 4.70312 18.8203 5.10938 18.1094ZM20.0156 16.9844C20.5547 16.9844 21.0176 16.791 21.4043 16.4043C21.791 16.0176 21.9844 15.5547 21.9844 15.0156C21.9844 14.4556 21.791 13.979 21.4043 13.5859C21.02 13.1953 20.5571 13 20.0156 13C19.4531 13 18.9766 13.1953 18.5859 13.5859C18.1953 13.9766 18 14.4531 18 15.0156C18 15.5571 18.1953 16.02 18.5859 16.4043C18.979 16.791 19.4556 16.9844 20.0156 16.9844ZM24 20.4531C24 20.0334 23.8906 19.6565 23.6719 19.3223C23.4551 18.9911 23.1582 18.7431 22.7812 18.5781C21.9375 18.2031 21.0156 18.0156 20.0156 18.0156C19.7031 18.0156 19.3281 18.0469 18.8906 18.1094C19.2969 18.8203 19.5 19.5859 19.5 20.4062V22H24V20.4531ZM16.2188 17.6406C14.8693 17.0469 13.4631 16.75 12 16.75C10.5369 16.75 9.13068 17.0469 7.78125 17.6406C7.24073 17.8756 6.80909 18.2428 6.48633 18.7422C6.16211 19.2438 6 19.7985 6 20.4062V22H18V20.4062C18 19.7985 17.8379 19.2438 17.5137 18.7422C17.1909 18.2428 16.7593 17.8756 16.2188 17.6406ZM8.0625 19.9844C8.06334 19.9823 8.06459 19.9792 8.06625 19.975C8.1213 19.8372 8.19008 19.7354 8.27257 19.6698C8.40055 19.568 8.64303 19.4541 9 19.3281C9.9375 18.9531 10.9375 18.7656 12 18.7656C13.0625 18.7656 14.0625 18.9531 15 19.3281C15.357 19.4541 15.5994 19.568 15.7274 19.6698C15.8099 19.7354 15.8787 19.8372 15.9338 19.975C15.9354 19.9792 15.9367 19.9823 15.9375 19.9844H8.0625ZM12 12.0156C12.2812 12.0156 12.5156 12.1094 12.7031 12.2969C12.8906 12.4844 12.9844 12.7188 12.9844 13C12.9844 13.2812 12.8906 13.5156 12.7031 13.7031C12.5156 13.8906 12.2812 13.9844 12 13.9844C11.7188 13.9844 11.4844 13.8906 11.2969 13.7031C11.1094 13.5156 11.0156 13.2812 11.0156 13C11.0156 12.7188 11.1094 12.4844 11.2969 12.2969C11.4844 12.1094 11.7188 12.0156 12 12.0156ZM12 10C11.1797 10 10.4746 10.2949 9.88477 10.8848C9.29492 11.4746 9 12.1797 9 13C9 13.8203 9.29492 14.5254 9.88477 15.1152C10.4746 15.7051 11.1797 16 12 16C12.8203 16 13.5254 15.7051 14.1152 15.1152C14.7051 14.5254 15 13.8203 15 13C15 12.1797 14.7051 11.4746 14.1152 10.8848C13.5254 10.2949 12.8203 10 12 10Z" fill="#94A3B8"/>
</svg>
