<svg width="25" height="24" viewBox="0 0 25 24" fill="none" xmlns="http://www.w3.org/2000/svg">
<path d="M12.2462 18.8461C12.4205 18.8295 12.5641 18.7647 12.6769 18.6519C12.7897 18.5391 12.8461 18.4019 12.8461 18.2404C12.8461 18.0519 12.784 17.9029 12.6596 17.7933C12.5353 17.6837 12.3788 17.6372 12.1904 17.6539C11.5071 17.7039 10.7628 17.5035 9.95769 17.0529C9.15256 16.6023 8.64999 15.8186 8.44999 14.7019C8.41666 14.5314 8.34518 14.3974 8.23557 14.3C8.12596 14.2026 7.99551 14.1539 7.84423 14.1539C7.66218 14.1539 7.51059 14.2221 7.38943 14.3587C7.26828 14.4952 7.2295 14.6705 7.27309 14.8846C7.5436 16.3372 8.19745 17.3756 9.23463 18C10.2718 18.6243 11.2756 18.9064 12.2462 18.8461ZM12 21.5C9.8577 21.5 8.07213 20.7647 6.6433 19.2942C5.21446 17.8237 4.50004 15.9923 4.50004 13.8C4.50004 12.2487 5.12087 10.5484 6.36253 8.69906C7.60419 6.84971 9.48335 4.83466 12 2.65389C14.5167 4.83466 16.3958 6.84971 17.6375 8.69906C18.8791 10.5484 19.5 12.2487 19.5 13.8C19.5 15.9923 18.7855 17.8237 17.3567 19.2942C15.9279 20.7647 14.1423 21.5 12 21.5ZM12 20C13.7333 20 15.1667 19.4125 16.3 18.2375C17.4333 17.0625 18 15.5833 18 13.8C18 12.5833 17.4958 11.2083 16.4875 9.675C15.4792 8.14167 13.9833 6.46667 12 4.65C10.0167 6.46667 8.52083 8.14167 7.5125 9.675C6.50417 11.2083 6 12.5833 6 13.8C6 15.5833 6.56667 17.0625 7.7 18.2375C8.83333 19.4125 10.2667 20 12 20Z" fill="#94A3B8"/>
</svg>
