<svg width="24" height="24" viewBox="0 0 24 24" fill="none" xmlns="http://www.w3.org/2000/svg">
<path d="M24 12.073C24 5.405 18.627 0 12 0S0 5.405 0 12.073C0 18.1 4.415 23.094 10.125 24V15.563H7.078V12.073H10.125V9.413C10.125 6.387 11.906 4.725 14.656 4.725C15.973 4.725 17.352 4.96 17.352 4.96V7.93H15.832C14.34 7.93 13.875 8.854 13.875 9.801V12.073H17.203L16.67 15.563H13.875V24C19.585 23.094 24 18.1 24 12.073Z" fill="#1877F2"/>
<path d="M16.671 15.563L17.203 12.073H13.875V9.801C13.875 8.854 14.34 7.93 15.832 7.93H17.352V4.96C17.352 4.96 15.973 4.725 14.656 4.725C11.906 4.725 10.125 6.387 10.125 9.413V12.073H7.078V15.563H10.125V24C11.366 24.196 12.634 24.196 13.875 24V15.563H16.671Z" fill="white"/>
</svg>
