<svg width="245" height="171" viewBox="0 0 245 171" fill="none" xmlns="http://www.w3.org/2000/svg">
<path d="M114.703 4.28295C114.703 7.90506 113.264 11.3788 110.703 13.94C108.142 16.5012 104.668 17.9401 101.046 17.9402H78.3557V11.7992C78.3557 10.2584 78.6591 8.73277 79.2488 7.30931C79.8384 5.88584 80.7026 4.59245 81.792 3.50298C82.8815 2.41351 84.1749 1.5493 85.5984 0.959689C87.0218 0.370083 88.5475 0.0666278 90.0882 0.0666509H110.487C111.041 0.0663814 111.589 0.175255 112.101 0.387048C112.612 0.598841 113.077 0.9094 113.469 1.30097C113.86 1.69255 114.171 2.15745 114.383 2.66912C114.594 3.18079 114.703 3.72918 114.703 4.28295Z" fill="#E5CADB"/>
<path d="M114.703 65.4732V67.1779C114.703 67.4532 114.674 67.7278 114.615 67.9969V67.9982C114.428 68.8565 113.953 69.625 113.268 70.176C112.584 70.727 111.732 71.0274 110.854 71.0274H89.6587C86.661 71.0273 83.7861 69.8365 81.6663 67.7168C79.5466 65.597 78.3557 62.7221 78.3557 59.7243V53.1538H102.384C104.001 53.1538 105.603 53.4724 107.098 54.0915C108.593 54.7106 109.951 55.6181 111.095 56.762C112.239 57.906 113.146 59.2641 113.765 60.7588C114.384 62.2534 114.703 63.8554 114.703 65.4732Z" fill="#E5CADB"/>
<path d="M78.3891 17.9403V53.1539H72.2894C69.1668 53.1539 66.172 51.9134 63.964 49.7054C61.756 47.4974 60.5155 44.5026 60.5155 41.38V29.4594C60.5154 27.9467 60.8133 26.4487 61.3921 25.0511C61.971 23.6535 62.8195 22.3836 63.8891 21.3139C64.9588 20.2443 66.2287 19.3958 67.6263 18.8169C69.0239 18.2381 70.5219 17.9402 72.0346 17.9403H78.3891Z" fill="#E5CADB"/>
<path d="M184.275 61.1072C183.998 60.7263 183.422 60.4694 182.865 60.2421C179.68 58.949 176.193 57.9792 173.574 56.1731C171.331 54.6414 169.537 52.5393 168.378 50.0835C167.385 48.0009 165.79 46.0387 163.75 44.2589C159.342 40.4065 152.853 37.4083 145.865 35.9037C144.296 35.5656 142.712 35.3063 141.118 35.1267L119.241 33.7734L119.211 34.255L119.989 34.3032C122.95 34.7313 126.198 35.5744 129.47 36.8054C130.981 37.3718 132.495 38.0221 133.988 38.7527C137.726 40.5786 140.813 42.6511 143.048 44.7155L143.049 44.7166C145.678 47.1473 147.128 49.566 147.082 51.5615C147.419 52.6889 147.745 53.8193 148.428 54.8912C148.691 55.302 148.989 55.6896 149.318 56.0499C151.89 58.8779 156.571 60.5931 161.217 61.7695C164.374 62.5688 167.69 63.2565 171.038 63.6174C174.344 63.9729 177.675 64.0099 180.91 63.5214C181.325 63.4583 181.735 63.3724 182.141 63.2642C183.567 62.8776 185.04 62.1565 184.275 61.1072Z" fill="#EEA5D9"/>
<path d="M174.25 69.4281C173.886 69.6127 173.507 69.7692 173.119 69.8963C166.801 71.9182 158.881 70.9274 152.703 68.7873C148.603 67.367 144.743 64.7594 142.719 60.9215C141.361 58.3482 140.907 55.4066 139.942 52.662C137.799 46.5709 133.339 42.5199 128.006 39.1884C126.617 38.3174 125.174 37.5351 123.687 36.8462C122.145 36.127 120.551 35.5241 118.919 35.0424C117.68 34.6714 116.411 34.4072 115.127 34.2526C113.813 34.1043 112.497 34.1559 111.178 34.1559C110.469 34.1564 109.782 33.9171 109.226 33.4769C108.879 33.2017 108.593 32.8561 108.389 32.4627C108.184 32.0693 108.065 31.6371 108.039 31.1944C108.014 30.7517 108.082 30.3086 108.239 29.8942C108.397 29.4797 108.641 29.1034 108.954 28.7898C108.978 28.7649 109.004 28.7413 109.03 28.7191C109.611 28.1721 110.38 27.8681 111.178 27.8694H135.223C138.241 27.8663 141.134 26.6653 143.266 24.5304C145.399 22.3955 146.597 19.5013 146.597 16.4837C146.597 13.4661 145.399 10.5719 143.266 8.437C141.134 6.3021 138.241 5.10114 135.223 5.09797H125.707C125.032 5.09647 124.385 4.82726 123.909 4.34939C123.432 3.87153 123.164 3.22404 123.164 2.54899C123.164 1.87393 123.432 1.22645 123.909 0.748582C124.385 0.270718 125.032 0.00150575 125.707 6.28884e-06H152.507C154.394 -0.00175954 156.263 0.368358 158.006 1.0892C159.75 1.81005 161.335 2.86748 162.67 4.20107C164.004 5.53465 165.063 7.11823 165.786 8.86129C166.508 10.6043 166.88 12.4727 166.88 14.3596C166.88 16.2464 166.508 18.1148 165.786 19.8578C165.063 21.6009 164.004 23.1845 162.67 24.518C161.335 25.8516 159.75 26.9091 158.006 27.6299C156.263 28.3507 154.394 28.7209 152.507 28.7191H111.942C111.312 28.7205 110.708 28.9718 110.263 29.4178C109.819 29.8638 109.569 30.468 109.569 31.098C109.569 31.728 109.819 32.3323 110.263 32.7782C110.708 33.2242 111.312 33.4755 111.942 33.4769H125.772C130.14 33.4769 134.606 33.1775 138.899 34.1559C150.321 36.7584 157.432 44.459 162.103 54.7925C162.814 56.3645 163.527 57.9873 164.749 59.2054C166.351 60.8025 180.289 66.3887 174.25 69.4281Z" fill="#E5CADB"/>
<path d="M156.394 71.3414C156.383 71.2749 156.357 71.2117 156.318 71.1565C155.977 70.6164 155.414 70.281 154.884 69.9525C152.975 68.7706 150.872 67.9302 148.928 66.8061C147.096 65.7463 145.354 64.4374 144.172 62.6813C141.385 58.5426 142.307 53.3133 141.294 48.6759C140.486 44.9837 137.968 41.6584 135.056 39.3246C133.59 38.1499 132.217 37.0013 130.501 36.1767C126.729 34.3629 122.485 34.3388 118.377 34.3388C117.046 34.3388 115.7 34.2114 114.37 34.1465C115.528 34.2031 116.813 34.6605 117.933 34.9545C119.15 35.2742 120.334 35.6674 121.513 36.1031C123.199 36.7262 124.812 37.5806 126.122 38.8281C127.505 40.1455 128.271 41.9818 128.731 43.809C129.484 46.8003 129.412 49.9336 129.657 52.9886C129.899 55.9962 130.54 58.8639 132.146 61.4476C133.648 63.866 136.065 65.7792 138.518 67.1579C139.071 67.469 139.637 67.7574 140.214 68.0232C144.284 69.9021 148.642 70.9551 153.022 71.8159C154.103 72.0282 155.26 72.1743 156.245 71.566C156.303 71.5368 156.351 71.4903 156.382 71.4329C156.393 71.4039 156.398 71.3724 156.394 71.3414Z" fill="#D1ADC1"/>
<path d="M24.6506 109.208C25.824 109.208 27.1893 109.368 28.7466 109.688C30.304 110.008 31.4346 110.349 32.1386 110.712V117.144H30.2186C28.3413 113.901 25.8666 112.28 22.7946 112.28C21.472 112.28 20.2666 112.675 19.1786 113.464C18.112 114.253 17.2586 115.352 16.6186 116.76C16 118.147 15.6906 119.715 15.6906 121.464C15.6906 123.448 16 125.261 16.6186 126.904C17.2373 128.547 18.176 129.869 19.4346 130.872C20.6933 131.853 22.2506 132.344 24.1066 132.344C25.9413 132.344 28.608 131.096 32.1066 128.6L33.1946 130.36L27.3066 134.936C26.4533 135.213 25.632 135.395 24.8426 135.48C24.0533 135.587 23.2106 135.64 22.3146 135.64C20.0106 135.64 17.9626 135.096 16.1706 134.008C14.4 132.92 13.024 131.427 12.0426 129.528C11.0613 127.608 10.5706 125.432 10.5706 123C10.5706 120.504 11.3066 118.2 12.7786 116.088C14.272 113.955 16.1173 112.28 18.3146 111.064C20.5333 109.827 22.6453 109.208 24.6506 109.208ZM62.9274 135H52.5594V133.688L55.5674 131.256V123.384H43.6634V132.312L47.0874 133.4L46.2874 135H35.9194V133.688L38.9274 131.256V112.504L35.5354 111.448L36.3354 109.848H46.7034V111.16L43.6634 113.592V121.56H55.5674V112.504L52.1754 111.448L52.9754 109.848H63.3434V111.16L60.3034 113.592V132.312L63.7274 133.4L62.9274 135ZM76.4249 135H66.0569V133.688L69.0649 131.256V112.504L65.6729 111.448L66.4729 109.848H76.8409V111.16L73.8009 113.592V132.312L77.2249 133.4L76.4249 135ZM117.307 132.056C118.651 132.056 120.539 131.256 122.971 129.656L123.931 131.128L119.163 134.904C118.16 135.139 116.923 135.256 115.451 135.256C114.171 135.256 113.008 135 111.963 134.488C110.939 133.976 110.128 133.283 109.531 132.408C108.955 131.512 108.667 130.541 108.667 129.496C108.667 129.112 108.699 128.728 108.763 128.344L100.443 134.936C99.4829 135.171 98.2242 135.288 96.6669 135.288C95.0029 135.288 93.5095 134.893 92.1869 134.104C90.8855 133.315 89.8615 132.237 89.1149 130.872C88.3895 129.507 88.0269 127.992 88.0269 126.328C88.0269 124.557 88.5709 122.904 89.6589 121.368C90.7682 119.811 92.1549 118.573 93.8189 117.656C95.4829 116.739 97.0829 116.28 98.6189 116.28C99.8562 116.28 100.902 116.643 101.755 117.368C102.608 118.093 103.174 118.925 103.451 119.864C104.39 118.819 105.424 117.965 106.555 117.304C107.707 116.643 108.806 116.312 109.851 116.312C110.64 116.312 111.334 116.419 111.931 116.632C112.528 116.824 113.296 117.133 114.235 117.56C115.088 117.965 115.824 118.275 116.443 118.488C117.083 118.701 117.798 118.808 118.587 118.808C119.44 118.808 120.208 118.563 120.891 118.072C121.595 117.56 121.947 116.941 121.947 116.216C121.947 115.448 121.51 114.723 120.635 114.04C119.782 113.336 118.576 112.707 117.019 112.152V110.84L121.371 109.432C122.054 110.115 122.758 111.064 123.483 112.28C124.208 113.496 124.571 114.541 124.571 115.416C124.571 116.525 124.123 117.667 123.227 118.84C122.352 120.013 121.318 121.005 120.123 121.816C118.928 122.605 117.936 123 117.147 123C116.486 123 115.931 122.957 115.483 122.872C114.779 123.405 114.256 124.067 113.915 124.856C113.595 125.645 113.435 126.648 113.435 127.864C113.435 129.123 113.766 130.147 114.427 130.936C115.088 131.725 116.038 132.12 117.275 132.12L117.307 132.056ZM111.003 124.408C111.707 123.661 112.571 122.968 113.595 122.328C113.019 122.136 112.304 121.837 111.451 121.432C110.555 121.027 109.819 120.728 109.243 120.536C108.667 120.344 108.048 120.248 107.387 120.248C106.747 120.248 106.107 120.365 105.467 120.6C104.848 120.835 104.198 121.24 103.515 121.816C103.302 122.733 102.832 123.597 102.107 124.408C101.382 125.197 100.507 125.933 99.4829 126.616C98.4802 127.277 97.1469 128.067 95.4829 128.984L94.6509 127.384C96.2509 126.467 97.3389 125.581 97.9149 124.728C98.5122 123.853 98.8109 122.925 98.8109 121.944C98.8109 121.24 98.5869 120.632 98.1389 120.12C97.7122 119.587 97.2002 119.32 96.6029 119.32C95.3655 119.32 94.4269 119.779 93.7869 120.696C93.1682 121.613 92.8589 122.968 92.8589 124.76C92.8589 126.104 93.0722 127.331 93.4989 128.44C93.9255 129.549 94.5549 130.435 95.3869 131.096C96.2189 131.736 97.2215 132.056 98.3949 132.056C100.379 132.056 102.63 131.043 105.147 129.016L111.003 124.408ZM159.448 135H153.08L146.392 123.768L144.952 122.744L145.528 121.56H147.224C148.546 121.56 149.592 121.197 150.36 120.472C151.128 119.747 151.512 118.744 151.512 117.464C151.512 115.843 151.064 114.509 150.168 113.464C149.293 112.419 148.013 111.896 146.328 111.896C145.218 111.896 144.205 112.227 143.288 112.888V132.312L146.712 133.4L145.912 135H135.544V133.688L138.552 131.256V112.472L135.16 111.448L135.96 109.848H140.312C142.21 109.848 144.077 109.784 145.912 109.656C147.277 109.571 148.28 109.528 148.92 109.528C150.434 109.528 151.778 109.816 152.952 110.392C154.125 110.968 155.032 111.757 155.672 112.76C156.312 113.741 156.632 114.829 156.632 116.024C156.632 117.581 155.96 119.011 154.616 120.312C153.272 121.613 151.65 122.573 149.752 123.192L152.056 123.928L156.696 131.704L160.248 133.4L159.448 135ZM175.583 109.208C177.929 109.208 179.999 109.752 181.791 110.84C183.604 111.928 185.001 113.432 185.983 115.352C186.964 117.272 187.455 119.448 187.455 121.88C187.455 124.376 186.708 126.68 185.215 128.792C183.721 130.904 181.865 132.579 179.647 133.816C177.428 135.032 175.316 135.64 173.311 135.64C170.985 135.64 168.927 135.107 167.135 134.04C165.343 132.952 163.945 131.448 162.943 129.528C161.961 127.608 161.471 125.432 161.471 123C161.471 120.504 162.217 118.2 163.711 116.088C165.204 113.955 167.049 112.28 169.247 111.064C171.465 109.827 173.577 109.208 175.583 109.208ZM173.727 112.28C172.404 112.28 171.199 112.675 170.111 113.464C169.023 114.253 168.159 115.352 167.519 116.76C166.9 118.168 166.591 119.736 166.591 121.464C166.591 123.491 166.9 125.347 167.519 127.032C168.159 128.696 169.119 130.029 170.399 131.032C171.679 132.035 173.268 132.536 175.167 132.536C176.489 132.536 177.695 132.141 178.783 131.352C179.892 130.563 180.756 129.475 181.375 128.088C182.015 126.68 182.335 125.112 182.335 123.384C182.335 121.336 182.015 119.48 181.375 117.816C180.756 116.131 179.796 114.787 178.495 113.784C177.215 112.781 175.625 112.28 173.727 112.28ZM204.331 129.496C204.331 128.835 204.064 128.216 203.531 127.64C203.019 127.064 202.379 126.541 201.611 126.072C200.843 125.581 199.776 124.973 198.411 124.248C196.811 123.395 195.52 122.659 194.539 122.04C193.558 121.4 192.715 120.664 192.011 119.832C191.328 118.979 190.987 118.04 190.987 117.016C190.987 115.949 191.446 114.808 192.363 113.592C193.302 112.355 194.443 111.32 195.787 110.488C197.131 109.635 198.368 109.208 199.499 109.208C200.864 109.208 202.454 109.368 204.267 109.688C206.102 110.008 207.435 110.349 208.267 110.712V117.24H206.347C205.366 115.512 204.278 114.168 203.083 113.208C201.91 112.248 200.672 111.768 199.371 111.768C198.283 111.768 197.43 112.109 196.811 112.792C196.192 113.453 195.883 114.317 195.883 115.384C195.883 116.088 196.15 116.749 196.683 117.368C197.216 117.965 197.878 118.509 198.667 119C199.478 119.491 200.566 120.088 201.931 120.792C203.488 121.603 204.758 122.317 205.739 122.936C206.72 123.555 207.542 124.28 208.203 125.112C208.886 125.944 209.227 126.861 209.227 127.864C209.227 128.931 208.726 130.083 207.723 131.32C206.742 132.536 205.536 133.571 204.107 134.424C202.678 135.256 201.376 135.672 200.203 135.672C198.774 135.672 197.067 135.512 195.083 135.192C193.12 134.872 191.702 134.531 190.827 134.168V127.64H192.779C193.803 129.368 194.976 130.712 196.299 131.672C197.622 132.632 198.976 133.112 200.363 133.112C201.558 133.112 202.518 132.76 203.243 132.056C203.968 131.331 204.331 130.477 204.331 129.496ZM231.729 135H212.113V133.688L215.121 131.32V112.536L211.729 111.448L212.529 109.848H231.409L233.361 109.272V116.952L232.081 117.432L228.209 111.672H219.857V121.24H224.369L226.737 117.336H228.049V126.904L226.449 127.704L224.401 123.064H219.857V133.144H228.049L232.401 126.776L233.681 127.256V135.576L231.729 135Z" fill="#E5CADB"/>
</svg>
