<svg width="24" height="24" viewBox="0 0 24 24" fill="none" xmlns="http://www.w3.org/2000/svg">
<path d="M23.52 12.2727C23.52 11.4273 23.4436 10.6145 23.3018 9.81818H12V14.4545H18.4582C18.18 15.9545 17.3291 17.2255 16.0636 18.0709V21.0764H19.9418C22.2109 18.9873 23.52 15.9109 23.52 12.2727Z" fill="#4285F4"/>
<path d="M12 24C15.24 24 17.9564 22.9255 19.9418 21.0764L16.0636 18.0709C14.9891 18.7909 13.6145 19.2164 12 19.2164C8.87455 19.2164 6.22909 17.1055 5.28545 14.2691H1.27637V17.3782C3.25091 21.3 7.30909 24 12 24Z" fill="#34A853"/>
<path d="M5.28545 14.2691C5.04545 13.5491 4.90909 12.7855 4.90909 12C4.90909 11.2145 5.04545 10.4509 5.28545 9.73091V6.62182H1.27637C0.463636 8.24182 0 10.0745 0 12C0 13.9255 0.463636 15.7582 1.27637 17.3782L5.28545 14.2691Z" fill="#FBBC05"/>
<path d="M12 4.78364C13.7618 4.78364 15.3436 5.38909 16.5873 6.57818L20.0345 3.13091C17.9509 1.18909 15.2345 0 12 0C7.30909 0 3.25091 2.7 1.27637 6.62182L5.28545 9.73091C6.22909 6.89455 8.87455 4.78364 12 4.78364Z" fill="#EA4335"/>
</svg>
