<svg width="164" height="164" viewBox="0 0 164 164" fill="none" xmlns="http://www.w3.org/2000/svg">
<g clip-path="url(#clip0_41_1025)">
<path d="M163.35 142.532L121.998 101.179L101.179 121.998L142.532 163.35C143.398 164.216 144.802 164.216 145.669 163.35L163.35 145.669C164.216 144.803 164.216 143.398 163.35 142.532Z" fill="#EEDCF0"/>
<path d="M116.495 95.6765L109.27 88.4514C108.403 87.5849 106.999 87.5849 106.133 88.4514L102.865 91.7193L97.1181 85.973C112.812 64.8728 111.145 34.9323 91.9981 15.7847C70.952 -5.26148 36.8301 -5.26148 15.7842 15.7847C-5.26125 36.8305 -5.26158 70.9524 15.7842 91.9982C34.9322 111.146 64.873 112.812 85.9729 97.1182L91.7195 102.864L88.4513 106.133C87.5852 106.999 87.5851 108.403 88.4517 109.27L95.6764 116.495L97.4391 118.257L118.258 97.4389L116.495 95.6765ZM82.9637 82.9641C66.8977 99.0301 40.8496 99.0301 24.783 82.9641C8.71703 66.8981 8.71736 40.8498 24.7837 24.7838C40.8496 8.71746 66.8977 8.71746 82.9637 24.7838C99.03 40.8498 99.0303 66.8978 82.9637 82.9641Z" fill="#EEDCF0"/>
</g>
<defs>
<clipPath id="clip0_41_1025">
<rect width="164" height="164" fill="white"/>
</clipPath>
</defs>
</svg>
