<svg width="83" height="52" viewBox="0 0 83 52" fill="none" xmlns="http://www.w3.org/2000/svg">
<path d="M36.1251 2.85518C36.125 5.26992 35.1657 7.58574 33.4583 9.29322C31.7508 11.0007 29.435 11.96 27.0202 11.96H11.8935V7.866C11.8935 6.83883 12.0958 5.82173 12.4889 4.87275C12.8819 3.92377 13.4581 3.06151 14.1844 2.3352C14.9107 1.60888 15.773 1.03274 16.7219 0.639671C17.6709 0.2466 18.688 0.0442964 19.7152 0.0443119H33.3142C33.6834 0.0441322 34.049 0.116714 34.3901 0.25791C34.7312 0.399105 35.0411 0.606145 35.3022 0.867193C35.5632 1.12824 35.7703 1.43818 35.9115 1.77929C36.0527 2.1204 36.1253 2.486 36.1251 2.85518Z" fill="#E5CADB"/>
<path d="M34.5122 47.8409L34.1049 48.9019C34.0391 49.0732 33.9552 49.2371 33.8545 49.3905L33.8541 49.3914C33.5325 49.8808 33.0532 50.2456 32.4957 50.4251C31.9382 50.6046 31.3361 50.5879 30.7894 50.378L17.598 45.3143C15.7322 44.5981 14.2274 43.1701 13.4145 41.3444C12.6017 39.5186 12.5474 37.4448 13.2635 35.579L14.8333 31.4896L29.788 37.2302C30.7949 37.6167 31.7158 38.1977 32.4982 38.9401C33.2805 39.6826 33.909 40.5718 34.3477 41.5571C34.7864 42.5424 35.0267 43.6045 35.0549 44.6826C35.0831 45.7608 34.8987 46.834 34.5122 47.8409Z" fill="#E5CADB"/>
<path d="M11.9157 11.9602L11.9157 35.4359H7.84925C5.7675 35.4359 3.77102 34.609 2.299 33.1369C0.826978 31.6649 4.46607e-06 29.6684 1.87519e-08 27.5867L1.87519e-08 19.6396C-7.04572e-05 18.6311 0.198514 17.6325 0.584415 16.7007C0.970317 15.769 1.53598 14.9224 2.24909 14.2093C2.9622 13.4962 3.8088 12.9305 4.74054 12.5446C5.67229 12.1587 6.67092 11.9601 7.67941 11.9602H11.9157Z" fill="#E5CADB"/>
<path d="M82.5065 40.7384C82.3217 40.4844 81.9378 40.3132 81.5661 40.1616C79.4429 39.2996 77.1181 38.653 75.3722 37.4489C73.877 36.4279 72.6812 35.0265 71.9081 33.3892C71.2462 32.0008 70.1829 30.6927 68.8227 29.5062C65.8843 26.9379 61.5583 24.9391 56.8994 23.9361C55.8539 23.7107 54.7977 23.5378 53.7348 23.418L39.1501 22.5159L39.1302 22.8369L39.6491 22.869C41.6227 23.1545 43.7884 23.7165 45.9697 24.5372C46.9768 24.9148 47.9863 25.3483 48.9819 25.8354C51.4738 27.0527 53.5315 28.4343 55.0213 29.8106L55.0222 29.8113C56.7748 31.4318 57.7419 33.0442 57.7112 34.3746C57.9359 35.1262 58.1529 35.8798 58.6082 36.5944C58.7836 36.8682 58.982 37.1266 59.2013 37.3668C60.9165 39.2522 64.0366 40.3956 67.1341 41.1799C69.2386 41.7128 71.4499 42.1713 73.6813 42.4119C75.8853 42.6489 78.1062 42.6735 80.2629 42.3478C80.5393 42.3058 80.8132 42.2485 81.0834 42.1764C82.0343 41.9186 83.0163 41.4379 82.5065 40.7384Z" fill="#EEA5D9"/>
<path d="M75.823 46.2854C75.58 46.4085 75.3279 46.5128 75.069 46.5975C70.8567 47.9454 65.577 47.2849 61.4584 45.8582C58.725 44.9113 56.1517 43.1729 54.802 40.6143C53.8969 38.8988 53.5945 36.9377 52.9508 35.108C51.5221 31.0472 48.549 28.3466 44.9933 26.1256C44.0674 25.5449 43.1057 25.0234 42.114 24.5641C41.086 24.0847 40.0236 23.6827 38.9356 23.3616C38.1095 23.1143 37.2636 22.9381 36.4074 22.835C35.5314 22.7362 34.6542 22.7706 33.7748 22.7706C33.3025 22.771 32.8439 22.6114 32.4738 22.318C32.242 22.1345 32.0517 21.9041 31.9153 21.6418C31.7789 21.3795 31.6995 21.0914 31.6824 20.7963C31.6653 20.5011 31.7107 20.2057 31.8159 19.9295C31.921 19.6532 32.0834 19.4023 32.2924 19.1932C32.3085 19.1766 32.3254 19.1608 32.3431 19.1461C32.7305 18.7814 33.2427 18.5787 33.7748 18.5796H49.805C51.8167 18.5775 53.7453 17.7769 55.1671 16.3536C56.5889 14.9303 57.3875 13.0009 57.3875 10.9891C57.3875 8.97739 56.5889 7.04793 55.1671 5.62467C53.7453 4.2014 51.8167 3.40076 49.805 3.39865L43.4612 3.39865C43.0112 3.39765 42.5799 3.21817 42.262 2.89959C41.9442 2.58102 41.7656 2.14936 41.7656 1.69932C41.7656 1.24929 41.9442 0.817631 42.262 0.499055C42.5799 0.180479 43.0112 0.00100383 43.4612 4.19256e-06L61.3276 4.19256e-06C62.5855 -0.00117303 63.8313 0.245572 64.9938 0.726135C66.1563 1.2067 67.2127 1.91166 68.1026 2.80071C68.9925 3.68977 69.6984 4.74549 70.1801 5.90752C70.6617 7.06956 70.9096 8.31513 70.9096 9.57304C70.9096 10.8309 70.6617 12.0765 70.1801 13.2385C69.6984 14.4006 68.9925 15.4563 68.1026 16.3454C67.2127 17.2344 66.1563 17.9394 64.9938 18.4199C63.8313 18.9005 62.5855 19.1472 61.3276 19.1461H34.2843C33.8643 19.147 33.4619 19.3145 33.1652 19.6119C32.8686 19.9092 32.702 20.312 32.702 20.732C32.702 21.152 32.8686 21.5548 33.1652 21.8522C33.4619 22.1495 33.8643 22.317 34.2843 22.318H43.5044C46.4162 22.318 49.3933 22.1183 52.2557 22.7706C59.8703 24.5056 64.6109 29.6393 67.7249 36.5283C68.1986 37.5764 68.6742 38.6582 69.4887 39.4703C70.5566 40.535 79.8489 44.2591 75.823 46.2854Z" fill="#E5CADB"/>
<path d="M63.919 47.5609C63.9116 47.5165 63.8944 47.4744 63.8686 47.4376C63.6408 47.0776 63.2658 46.854 62.9121 46.635C61.6394 45.847 60.2376 45.2868 58.9418 44.5374C57.72 43.8308 56.5591 42.9582 55.7708 41.7875C53.913 39.0284 54.5279 35.5422 53.852 32.4506C53.3139 29.9891 51.6352 27.7722 49.6938 26.2164C48.7165 25.4332 47.8007 24.6675 46.6572 24.1178C44.1421 22.9086 41.3131 22.8925 38.5741 22.8925C37.6867 22.8925 36.7893 22.8075 35.9027 22.7643C36.6752 22.802 37.5319 23.107 38.2783 23.303C39.0898 23.5161 39.8788 23.7782 40.6648 24.0687C41.7887 24.4841 42.8646 25.0537 43.7378 25.8853C44.6599 26.7636 45.1706 27.9878 45.4771 29.206C45.9788 31.2001 45.9307 33.289 46.0944 35.3257C46.2556 37.3307 46.6831 39.2425 47.7534 40.965C48.7552 42.5773 50.3666 43.8528 52.0016 44.7719C52.3705 44.9793 52.7474 45.1716 53.1323 45.3488C55.8454 46.6014 58.7512 47.3034 61.6711 47.8772C62.3915 48.0188 63.1629 48.1162 63.8195 47.7106C63.8583 47.6912 63.8902 47.6602 63.9107 47.6219C63.9186 47.6026 63.9214 47.5816 63.919 47.5609Z" fill="#D1ADC1"/>
</svg>
