<svg width="59" height="35" viewBox="0 0 59 35" fill="none" xmlns="http://www.w3.org/2000/svg">
<g clip-path="url(#clip0_354_862)">
<path d="M32 17.375H28C25.879 17.3774 23.8456 18.221 22.3458 19.7208C20.846 21.2206 20.0024 23.254 20 25.375C19.9999 25.587 20.0671 25.7936 20.192 25.9649C20.317 26.1362 20.4931 26.2633 20.695 26.328C23.7318 27.1137 26.8645 27.4662 30 27.375C33.1355 27.4662 36.2682 27.1137 39.305 26.328C39.5069 26.2633 39.683 26.1362 39.808 25.9649C39.9329 25.7936 40.0001 25.587 40 25.375C39.9976 23.254 39.154 21.2206 37.6542 19.7208C36.1544 18.221 34.121 17.3774 32 17.375Z" fill="#1E1E1E"/>
<path d="M30 15.3749C33.1 15.3749 35.5 11.9049 35.5 8.91992C35.5 7.46123 34.9205 6.06228 33.8891 5.03083C32.8576 3.99938 31.4587 3.41992 30 3.41992C28.5413 3.41992 27.1424 3.99938 26.1109 5.03083C25.0795 6.06228 24.5 7.46123 24.5 8.91992C24.5 11.9049 26.9 15.3749 30 15.3749Z" fill="#1E1E1E"/>
</g>
<defs>
<clipPath id="clip0_354_862">
<rect width="24" height="24" fill="white" transform="translate(18 3.375)"/>
</clipPath>
</defs>
</svg>
