<svg width="312" height="312" viewBox="0 0 312 312" fill="none" xmlns="http://www.w3.org/2000/svg">
<path fill-rule="evenodd" clip-rule="evenodd" d="M275.383 233.947C274.419 237.116 273.42 240.319 272.387 243.557C271.353 246.794 270.286 249.998 269.183 253.167C268.081 256.404 266.91 259.573 265.67 262.673C264.43 265.773 263.156 268.804 261.847 271.767C260.469 274.66 259.022 277.484 257.507 280.24C255.922 282.927 254.269 285.51 252.547 287.99C250.755 290.401 248.861 292.64 246.863 294.707C244.866 296.773 242.73 298.599 240.457 300.183C238.183 301.837 235.772 303.283 233.223 304.523C230.606 305.694 227.919 306.693 225.163 307.52C222.408 308.347 219.549 309.001 216.587 309.483C213.624 309.966 210.593 310.276 207.493 310.413C204.393 310.551 201.293 310.551 198.193 310.413C195.024 310.276 191.856 310.034 188.687 309.69C185.449 309.346 182.245 308.863 179.077 308.243C175.977 307.692 172.877 307.072 169.777 306.383C166.677 305.626 163.611 304.799 160.58 303.903C157.549 303.077 154.587 302.181 151.693 301.217C148.731 300.183 145.803 299.15 142.91 298.117C140.017 297.014 137.123 295.912 134.23 294.81C131.337 293.708 128.478 292.537 125.653 291.297C122.76 290.126 119.832 288.954 116.87 287.783C113.977 286.543 111.014 285.303 107.983 284.063C105.021 282.892 102.024 281.687 98.9933 280.447C95.8933 279.276 92.7588 278.104 89.5899 276.933C86.4211 275.762 83.2177 274.591 79.9799 273.42C76.7422 272.18 73.5388 270.974 70.3699 269.803C67.1322 268.563 63.9288 267.254 60.7599 265.877C57.591 264.568 54.4566 263.19 51.3566 261.743C48.2566 260.297 45.2599 258.747 42.3666 257.093C39.4733 255.44 36.6833 253.683 33.9966 251.823C31.3099 249.963 28.7266 247.966 26.2466 245.83C23.8355 243.694 21.5622 241.421 19.4266 239.01C17.3599 236.599 15.431 234.016 13.6399 231.26C11.9177 228.504 10.3333 225.68 8.8866 222.787C7.50882 219.824 6.26882 216.759 5.1666 213.59C4.13327 210.49 3.27216 207.287 2.58327 203.98C1.82549 200.742 1.27438 197.436 0.929935 194.06C0.654379 190.753 0.516602 187.412 0.516602 184.037C0.58549 180.661 0.792157 177.32 1.1366 174.013C1.54993 170.707 2.16994 167.434 2.9966 164.197C3.75438 160.959 4.71882 157.756 5.88994 154.587C6.99216 151.487 8.2666 148.421 9.71327 145.39C11.1599 142.29 12.7444 139.259 14.4666 136.297C16.1199 133.334 17.8422 130.372 19.6333 127.41C21.4933 124.517 23.3877 121.589 25.3166 118.627C27.3144 115.733 29.2777 112.806 31.2066 109.843C33.2044 106.881 35.1677 103.919 37.0966 100.957C39.0255 97.9944 40.9199 94.9978 42.7799 91.9667C44.6399 88.9356 46.431 85.87 48.1533 82.77C49.8755 79.67 51.5288 76.57 53.1133 73.47C54.6977 70.3011 56.2822 67.2011 57.8666 64.17C59.3822 61.07 60.9322 58.0389 62.5166 55.0767C64.0322 52.0456 65.5822 49.1522 67.1666 46.3967C68.8199 43.5722 70.4733 40.8511 72.1266 38.2333C73.8488 35.6844 75.6399 33.2733 77.4999 31C79.3599 28.7267 81.3233 26.6256 83.3899 24.6967C85.3877 22.7678 87.5577 21.0456 89.8999 19.53C92.2422 18.0144 94.6877 16.6711 97.2366 15.5C99.7855 14.3978 102.472 13.4678 105.297 12.71C108.121 11.8833 111.014 11.1944 113.977 10.6433C117.008 10.0922 120.108 9.64444 123.277 9.3C126.445 8.95555 129.718 8.68 133.093 8.47333C136.4 8.19777 139.775 7.95666 143.22 7.75C146.664 7.54333 150.178 7.33666 153.76 7.13C157.273 6.92333 160.821 6.64777 164.403 6.30333C168.054 6.02777 171.671 5.68333 175.253 5.27C178.904 4.78777 182.555 4.34 186.207 3.92666C189.858 3.44444 193.509 2.96222 197.16 2.48C200.811 2.06666 204.428 1.68777 208.01 1.34333C211.592 0.998885 215.174 0.757774 218.757 0.619996C222.27 0.482218 225.749 0.482218 229.193 0.619996C232.638 0.688885 236.048 0.96444 239.423 1.44666C242.73 1.86 246.002 2.48 249.24 3.30666C252.409 4.20222 255.509 5.30444 258.54 6.61333C261.571 7.92222 264.499 9.43777 267.323 11.16C270.217 12.8822 272.972 14.8111 275.59 16.9467C278.208 19.0822 280.722 21.39 283.133 23.87C285.544 26.2811 287.783 28.8644 289.85 31.62C291.986 34.3756 293.983 37.2689 295.843 40.3C297.634 43.2622 299.288 46.3278 300.803 49.4967C302.319 52.6656 303.662 55.9378 304.833 59.3133C306.004 62.62 306.969 65.9956 307.727 69.44C308.553 72.8156 309.173 76.26 309.587 79.7733C310 83.2178 310.275 86.6967 310.413 90.21C310.551 93.7233 310.551 97.2711 310.413 100.853C310.275 104.367 310 107.88 309.587 111.393C309.242 114.907 308.794 118.42 308.243 121.933C307.692 125.378 307.038 128.822 306.28 132.267C305.591 135.642 304.833 139.018 304.007 142.393C303.249 145.7 302.422 148.972 301.527 152.21C300.631 155.448 299.736 158.617 298.84 161.717C297.944 164.817 297.049 167.882 296.153 170.913C295.189 173.944 294.224 176.941 293.26 179.903C292.296 182.866 291.331 185.828 290.367 188.79C289.402 191.683 288.438 194.611 287.473 197.573C286.44 200.536 285.441 203.463 284.477 206.357C283.443 209.319 282.444 212.316 281.48 215.347C280.447 218.378 279.448 221.443 278.483 224.543C277.45 227.574 276.417 230.709 275.383 233.947Z" fill="url(#paint0_linear_41_1024)" stroke="#1E1E1E" stroke-width="1.03333"/>
<defs>
<linearGradient id="paint0_linear_41_1024" x1="87.5166" y1="223.017" x2="360.517" y2="-6.48335" gradientUnits="userSpaceOnUse">
<stop stop-color="#E6A4CB"/>
<stop offset="1" stop-color="#F3E6F4"/>
</linearGradient>
</defs>
</svg>
